<svg width="150" height="150" viewBox="0 0 150 150" fill="none" xmlns="http://www.w3.org/2000/svg">
<path fill-rule="evenodd" clip-rule="evenodd" d="M75.0391 8.35733C74.9135 8.35649 74.7871 8.37565 74.6674 8.41314L25.716 23.8867C25.4599 23.9075 25.2113 24.0141 25.0187 24.184C24.822 24.3348 24.6739 24.548 24.6019 24.7846C24.5299 25.0212 24.5341 25.2802 24.6136 25.5143V94.35C24.6136 94.6015 24.6956 94.8523 24.8455 95.0555C24.9945 95.2588 25.2104 95.4129 25.4515 95.4887L74.5143 110.953C74.7797 111.074 75.0894 111.094 75.3682 111.008C75.3723 111.007 75.3765 111.008 75.3807 111.008C75.3841 111.007 75.3874 111.008 75.3908 111.008L124.608 95.4954C124.849 95.4188 125.064 95.2655 125.214 95.0623C125.363 94.8591 125.446 94.6083 125.446 94.3568V25.0839C125.446 25.0723 125.446 25.0606 125.445 25.0481C125.445 25.0423 125.444 25.0373 125.444 25.0323C125.436 24.7557 125.327 24.4825 125.142 24.2751C124.957 24.0677 124.698 23.9278 124.423 23.8869L75.3922 8.42088C75.2775 8.38506 75.1578 8.3659 75.0381 8.36507L75.0391 8.35733ZM75.0307 10.8047L95.66 17.3121L50.4114 31.583L29.8342 25.0922L75.0307 10.8047ZM99.6307 18.565L120.278 25.0781L75.0811 39.3656L54.3807 32.8358L99.6307 18.565ZM27.0136 26.7084L49.205 33.7088L48.9999 51.3308C48.9941 51.6448 49.118 51.9597 49.3381 52.1854C49.5582 52.4112 49.8705 52.5444 50.186 52.5486C50.5016 52.5519 50.8172 52.4262 51.0423 52.2054C51.2675 51.9847 51.3989 51.6731 51.4006 51.3591L51.5973 34.4636L73.8294 41.4766V108.233L27.0123 93.4768L27.0136 26.7084ZM123.046 26.7092V93.4764L76.2286 108.233V41.5082L123.046 26.7092Z" fill="white"/>
</svg>
