<svg width="210" height="211" viewBox="0 0 210 211" fill="none" xmlns="http://www.w3.org/2000/svg">
<path d="M168.25 53.0965H138.533V41.3851C138.53 39.2151 136.778 37.4566 134.616 37.4554H30.1442C27.9833 37.4578 26.2313 39.2162 26.2289 41.3851V108.438C24.7945 108.445 23.6332 109.61 23.625 111.05V116.772C23.6273 118.221 24.7957 119.396 26.2394 119.402H40.808C41.2475 123.737 43.8092 127.567 47.6411 129.617C51.4721 131.667 56.0681 131.667 59.9 129.617C63.731 127.567 66.2927 123.738 66.7319 119.402H148.182C148.619 123.739 151.181 127.572 155.014 129.623C158.846 131.674 163.444 131.674 167.276 129.623C171.108 127.572 173.67 123.739 174.107 119.402H182.462C184.623 119.399 186.373 117.64 186.376 115.471V84.5299C186.376 75.3285 176.642 60.9756 172.463 55.2335V55.2347C171.479 53.8891 169.915 53.094 168.252 53.0964L168.25 53.0965ZM64.7414 111.065H135.904V116.767H66.7364C66.5278 114.736 65.8458 112.782 64.7431 111.065H64.7414ZM28.8524 41.3866C28.8536 40.6715 29.4301 40.0928 30.1426 40.0917H134.618C135.33 40.0928 135.908 40.6715 135.909 41.3866V108.439H62.5261C60.1366 106.237 57.0112 105.015 53.7676 105.015C50.524 105.015 47.3986 106.237 45.0091 108.439H28.8535L28.8524 41.3866ZM26.238 111.074H42.786C41.6891 112.79 41.0094 114.74 40.8043 116.769L26.2483 116.78L26.238 111.074ZM53.7666 128.527C51.0115 128.525 48.3702 127.426 46.4202 125.473C44.4713 123.52 43.3722 120.87 43.3638 118.106V118.065C43.3673 115.3 44.4665 112.649 46.4202 110.699L46.4565 110.666H46.4577C48.9233 108.218 52.4436 107.165 55.842 107.859C59.2416 108.553 62.0718 110.902 63.39 114.122C64.7072 117.343 64.3392 121.01 62.4068 123.902C60.4755 126.793 57.2354 128.528 53.7665 128.527L53.7666 128.527ZM161.14 128.527C158.381 128.527 155.736 127.429 153.785 125.473C151.834 123.515 150.737 120.862 150.734 118.094C150.731 115.326 151.824 112.67 153.772 110.71C155.72 108.75 158.363 107.646 161.121 107.642C163.879 107.638 166.525 108.732 168.48 110.686C170.433 112.639 171.535 115.292 171.542 118.059V118.085V118.11V118.111C171.533 120.875 170.432 123.523 168.484 125.474C166.534 127.426 163.893 128.524 161.14 128.527V128.527ZM183.748 115.473C183.747 116.188 183.17 116.768 182.457 116.769H174.103C173.666 112.433 171.104 108.599 167.272 106.548C163.439 104.497 158.84 104.497 155.008 106.548C151.176 108.6 148.614 112.433 148.177 116.769H138.531V55.7326H168.249C169.073 55.7302 169.847 56.1219 170.337 56.7865C173.483 61.1088 183.748 75.8701 183.748 84.5316L183.748 115.473Z" fill="white"/>
<path d="M166.841 60.8529H143.832C143.107 60.8529 142.52 61.4433 142.52 62.1702V85.6644C142.52 86.0149 142.658 86.3489 142.904 86.5959C143.15 86.8429 143.484 86.9817 143.832 86.9817H176.703C177.051 86.9817 177.385 86.8429 177.631 86.5959C177.877 86.3489 178.016 86.0149 178.016 85.6644C177.934 76.4901 174.256 67.7172 167.778 61.2443C167.531 60.9926 167.193 60.8515 166.841 60.8527V60.8529ZM145.143 63.4876H151.086L151.087 84.3471H145.145L145.143 63.4876ZM153.711 84.3471L153.712 63.4876H166.286C171.732 69.1061 174.958 76.5196 175.363 84.3471H153.711Z" fill="white"/>
<path d="M53.7692 112.847C52.3852 112.847 51.0575 113.399 50.0789 114.381C49.1004 115.363 48.5508 116.696 48.5508 118.085C48.5508 119.474 49.1004 120.807 50.0789 121.789C51.0574 122.771 52.3852 123.323 53.7692 123.323C55.1532 123.323 56.481 122.771 57.4595 121.789C58.438 120.807 58.9877 119.474 58.9877 118.085C58.9865 116.696 58.4369 115.365 57.4584 114.382C56.4798 113.4 55.1533 112.849 53.7693 112.847L53.7692 112.847ZM53.7692 120.687C52.7204 120.687 51.7747 120.051 51.3727 119.079C50.972 118.106 51.1934 116.986 51.9352 116.242C52.6782 115.498 53.7938 115.275 54.763 115.678C55.7321 116.082 56.3626 117.032 56.3626 118.085C56.3614 119.521 55.2001 120.685 53.7692 120.687Z" fill="white"/>
<path d="M161.14 112.847C159.756 112.847 158.429 113.399 157.45 114.381C156.472 115.363 155.922 116.696 155.922 118.085C155.922 119.474 156.471 120.807 157.45 121.789C158.429 122.771 159.756 123.323 161.14 123.323C162.524 123.323 163.852 122.771 164.831 121.789C165.809 120.807 166.359 119.474 166.359 118.085C166.358 116.696 165.807 115.365 164.828 114.382C163.851 113.4 162.524 112.849 161.14 112.847L161.14 112.847ZM161.14 120.687C160.091 120.687 159.146 120.051 158.744 119.079C158.343 118.106 158.565 116.986 159.306 116.242C160.049 115.498 161.165 115.275 162.134 115.678C163.103 116.082 163.734 117.032 163.734 118.085C163.731 119.521 162.571 120.685 161.14 120.687Z" fill="white"/>
</svg>
