<svg width="180" height="180" viewBox="0 0 180 180" fill="none" xmlns="http://www.w3.org/2000/svg">
<g clip-path="url(#clip0_412_1232)">
<path d="M95.111 129.12H37.8064C35 129.12 32.7852 126.905 32.7852 124.099V88.3571C32.7852 85.5507 35.0001 83.3358 37.8064 83.3358H95.111C97.9175 83.3358 100.132 85.5508 100.132 88.3571V124.246C100.28 126.904 97.9174 129.119 95.111 129.119V129.12ZM37.8064 86.2891C36.6248 86.2891 35.7388 87.1751 35.7388 88.3568V124.246C35.7388 125.428 36.6248 126.314 37.8064 126.314H95.111C96.2927 126.314 97.326 125.428 97.326 124.246V88.3568C97.326 87.1751 96.44 86.2891 95.2584 86.2891H37.8064Z" fill="white"/>
<path d="M92.4529 86.2891H38.9883V77.1325C38.9883 74.1789 41.3516 71.8156 44.158 71.8156H88.6134C91.4198 71.8156 93.7832 74.1789 93.7832 77.1325V84.8127H92.4542L92.4529 86.2891ZM41.9421 83.3356H90.8283V77.1325C90.8283 75.8035 89.7939 74.7692 88.6133 74.7692H44.1579C42.9763 74.7692 41.943 75.8035 41.943 77.1325L41.9421 83.3356Z" fill="white"/>
<path d="M141.045 129.268H124.208C118.744 129.268 114.312 124.837 114.312 119.372V105.342H150.792V119.372C150.792 124.837 146.509 129.268 141.045 129.268H141.045ZM117.414 108.147V119.224C117.414 123.064 120.516 126.166 124.355 126.166H141.045C144.884 126.166 147.986 123.064 147.986 119.224V108.147H117.414Z" fill="white"/>
<path d="M157.732 36.96H107.516C106.63 36.96 106.039 36.3696 106.039 35.4826V29.1324C106.039 28.2464 106.629 27.655 107.516 27.655H157.732C158.618 27.655 159.209 28.2454 159.209 29.1324V35.4826C159.209 36.3686 158.619 36.96 157.732 36.96ZM108.993 34.0064H156.255V30.6097H108.993V34.0064Z" fill="white"/>
<path d="M149.314 108.148H115.935C115.197 108.148 114.606 107.557 114.458 106.819L106.039 35.7787C106.039 35.3357 106.186 34.8927 106.335 34.597C106.63 34.3014 107.073 34.1541 107.369 34.1541H157.584C158.027 34.1541 158.47 34.3014 158.619 34.597C158.914 34.8927 159.062 35.3357 158.914 35.7787L150.496 106.966C150.791 107.852 150.2 108.147 149.314 108.147L149.314 108.148ZM117.265 105.194H148.132L156.107 36.9603H109.141L117.265 105.194Z" fill="white"/>
<path d="M131.887 29.4271H133.364V35.7774H131.887V29.4271Z" fill="white"/>
<path d="M127.75 29.4271H129.227V35.7774H127.75V29.4271Z" fill="white"/>
<path d="M123.469 29.4271H124.946V35.7774H123.469V29.4271Z" fill="white"/>
<path d="M119.332 29.4271H120.809V35.7774H119.332V29.4271Z" fill="white"/>
<path d="M115.195 29.4271H116.673V35.7774H115.195V29.4271Z" fill="white"/>
<path d="M110.914 29.4271H112.391V35.7774H110.914V29.4271Z" fill="white"/>
<path d="M136.023 29.4271H137.501V35.7774H136.023V29.4271Z" fill="white"/>
<path d="M140.305 29.4271H141.782V35.7774H140.305V29.4271Z" fill="white"/>
<path d="M144.441 29.4271H145.919V35.7774H144.441V29.4271Z" fill="white"/>
<path d="M148.574 29.4271H150.052V35.7774H148.574V29.4271Z" fill="white"/>
<path d="M152.859 29.4271H154.337V35.7774H152.859V29.4271Z" fill="white"/>
</g>
<defs>
<clipPath id="clip0_412_1232">
<rect width="180" height="180" fill="white"/>
</clipPath>
</defs>
</svg>
