<svg width="182" height="42" viewBox="0 0 182 42" fill="none" xmlns="http://www.w3.org/2000/svg">
<path d="M15.7067 32.3721L6.38672 20.6076L15.7067 8.35254L25.0141 20.6076L15.7067 32.3721Z" fill="#FBA92C"/>
<path d="M15.7058 40.2156L1 20.6078L15.7072 1L30.4117 20.6078L15.7058 40.2156Z" stroke="#FBA92C" stroke-miterlimit="10"/>
<path d="M24.3815 20.6013L15.7064 31.5666L7.01964 20.6013L15.7064 9.17888L24.3815 20.6013Z" fill="#FBA92C" stroke="#FBA92C"/>
<path d="M15.7058 40.2156L1 20.6078L15.7072 1L30.4117 20.6078L15.7058 40.2156Z" stroke="#FBA92C" stroke-miterlimit="10"/>
<path d="M62.026 20.6013L53.351 31.5666L44.6642 20.6013L53.3509 9.17888L62.026 20.6013Z" fill="#FBA92C" stroke="#FBA92C"/>
<path d="M53.3504 40.2156L38.6445 20.6078L53.3517 1L68.0562 20.6078L53.3504 40.2156Z" stroke="#FBA92C" stroke-miterlimit="10"/>
<path d="M99.6784 20.6013L91.0033 31.5666L82.3165 20.6013L91.0033 9.17888L99.6784 20.6013Z" fill="#FBA92C" stroke="#FBA92C"/>
<path d="M91.0027 40.2156L76.2969 20.6078L91.0041 1L105.709 20.6078L91.0027 40.2156Z" stroke="#FBA92C" stroke-miterlimit="10"/>
<path d="M137.323 20.6013L128.648 31.5666L119.961 20.6013L128.648 9.17888L137.323 20.6013Z" fill="#FBA92C" stroke="#FBA92C"/>
<path d="M128.647 40.2156L113.941 20.6078L128.649 1L143.353 20.6078L128.647 40.2156Z" stroke="#FBA92C" stroke-miterlimit="10"/>
<path d="M174.967 20.6013L166.292 31.5665L157.606 20.6013L166.292 9.17888L174.967 20.6013Z" fill="#FBA92C" stroke="#FBA92C"/>
<path d="M166.292 40.2156L151.586 20.6078L166.293 1L180.998 20.6078L166.292 40.2156Z" stroke="#FBA92C" stroke-miterlimit="10"/>
</svg>
